<mxfile host="app.diagrams.net" agent="Mozilla/5.0 (Windows NT 10.0; Win64; x64) AppleWebKit/537.36 (KHTML, like Gecko) Chrome/139.0.0.0 Safari/537.36" version="28.1.1" pages="3">
  <diagram name="Containers" id="lOzkiFsFLhoU_XnJtFoY">
    <mxGraphModel dx="4236" dy="2180" grid="1" gridSize="10" guides="1" tooltips="1" connect="1" arrows="1" fold="1" page="1" pageScale="1" pageWidth="1654" pageHeight="2336" math="0" shadow="0">
      <root>
        <mxCell id="0" />
        <mxCell id="1" parent="0" />
        <mxCell id="YksOV0gF3LN-m6YiR59G-38" value="" style="rounded=0;whiteSpace=wrap;html=1;fillColor=none;" vertex="1" parent="1">
          <mxGeometry x="60" width="1570" height="1180" as="geometry" />
        </mxCell>
        <object placeholders="1" c4Name="Cliente" c4Type="Person" c4Description="Usuário que realiza pedidos" label="&lt;font style=&quot;font-size: 16px&quot;&gt;&lt;b&gt;%c4Name%&lt;/b&gt;&lt;/font&gt;&lt;div&gt;[%c4Type%]&lt;/div&gt;&lt;br&gt;&lt;div&gt;&lt;font style=&quot;font-size: 11px&quot;&gt;&lt;font&gt;%c4Description%&lt;/font&gt;&lt;/font&gt;&lt;/div&gt;" id="YksOV0gF3LN-m6YiR59G-1">
          <mxCell style="html=1;fontSize=11;dashed=0;whiteSpace=wrap;fillColor=light-dark(#0050EF,#003366);strokeColor=#001DBC;fontColor=light-dark(#FFFFFF,#FFFFFF);shape=mxgraph.c4.person2;align=center;metaEdit=1;points=[[0.5,0,0],[1,0.5,0],[1,0.75,0],[0.75,1,0],[0.5,1,0],[0.25,1,0],[0,0.75,0],[0,0.5,0]];resizable=0;labelBackgroundColor=none;" vertex="1" parent="1">
            <mxGeometry x="285" y="10" width="200" height="180" as="geometry" />
          </mxCell>
        </object>
        <mxCell id="YksOV0gF3LN-m6YiR59G-16" style="edgeStyle=orthogonalEdgeStyle;rounded=0;orthogonalLoop=1;jettySize=auto;html=1;" edge="1" parent="1" source="YksOV0gF3LN-m6YiR59G-2" target="YksOV0gF3LN-m6YiR59G-6">
          <mxGeometry relative="1" as="geometry" />
        </mxCell>
        <mxCell id="YksOV0gF3LN-m6YiR59G-19" value="Gerencia produtos e&lt;div&gt;acompanha pedidos&lt;/div&gt;" style="edgeLabel;html=1;align=center;verticalAlign=middle;resizable=0;points=[];" vertex="1" connectable="0" parent="YksOV0gF3LN-m6YiR59G-16">
          <mxGeometry x="-0.6225" y="-2" relative="1" as="geometry">
            <mxPoint x="2" y="8" as="offset" />
          </mxGeometry>
        </mxCell>
        <object placeholders="1" c4Name="Gerente" c4Type="Person" c4Description="Usuário que realiza cadastro de produtos" label="&lt;font style=&quot;font-size: 16px&quot;&gt;&lt;b&gt;%c4Name%&lt;/b&gt;&lt;/font&gt;&lt;div&gt;[%c4Type%]&lt;/div&gt;&lt;br&gt;&lt;div&gt;&lt;font style=&quot;font-size: 11px&quot;&gt;&lt;font&gt;%c4Description%&lt;/font&gt;&lt;/font&gt;&lt;/div&gt;" id="YksOV0gF3LN-m6YiR59G-2">
          <mxCell style="html=1;fontSize=11;dashed=0;whiteSpace=wrap;fillColor=light-dark(#0050EF,#003366);strokeColor=#001DBC;fontColor=light-dark(#FFFFFF,#FFFFFF);shape=mxgraph.c4.person2;align=center;metaEdit=1;points=[[0.5,0,0],[1,0.5,0],[1,0.75,0],[0.75,1,0],[0.5,1,0],[0.25,1,0],[0,0.75,0],[0,0.5,0]];resizable=0;labelBackgroundColor=none;" vertex="1" parent="1">
            <mxGeometry x="580" y="10" width="200" height="180" as="geometry" />
          </mxCell>
        </object>
        <object placeholders="1" c4Name="Funcionário" c4Type="Person" c4Description="Usuário do estoques que separa pedidos " label="&lt;font style=&quot;font-size: 16px&quot;&gt;&lt;b&gt;%c4Name%&lt;/b&gt;&lt;/font&gt;&lt;div&gt;[%c4Type%]&lt;/div&gt;&lt;br&gt;&lt;div&gt;&lt;font style=&quot;font-size: 11px&quot;&gt;&lt;font&gt;%c4Description%&lt;/font&gt;&lt;/font&gt;&lt;/div&gt;" id="YksOV0gF3LN-m6YiR59G-3">
          <mxCell style="html=1;fontSize=11;dashed=0;whiteSpace=wrap;fillColor=light-dark(#0050EF,#003366);strokeColor=#001DBC;fontColor=default;shape=mxgraph.c4.person2;align=center;metaEdit=1;points=[[0.5,0,0],[1,0.5,0],[1,0.75,0],[0.75,1,0],[0.5,1,0],[0.25,1,0],[0,0.75,0],[0,0.5,0]];resizable=0;labelBackgroundColor=none;" vertex="1" parent="1">
            <mxGeometry x="875" y="10" width="200" height="180" as="geometry" />
          </mxCell>
        </object>
        <mxCell id="YksOV0gF3LN-m6YiR59G-21" style="edgeStyle=orthogonalEdgeStyle;rounded=0;orthogonalLoop=1;jettySize=auto;html=1;dashed=1;dashPattern=12 12;" edge="1" parent="1" source="YksOV0gF3LN-m6YiR59G-6" target="YksOV0gF3LN-m6YiR59G-8">
          <mxGeometry relative="1" as="geometry" />
        </mxCell>
        <mxCell id="YksOV0gF3LN-m6YiR59G-22" value="CRUD de usuários&lt;div&gt;Gera Token de acesso JWT&lt;/div&gt;" style="edgeLabel;html=1;align=center;verticalAlign=middle;resizable=0;points=[];" vertex="1" connectable="0" parent="YksOV0gF3LN-m6YiR59G-21">
          <mxGeometry x="0.2778" y="-2" relative="1" as="geometry">
            <mxPoint x="113" y="-46" as="offset" />
          </mxGeometry>
        </mxCell>
        <mxCell id="YksOV0gF3LN-m6YiR59G-30" style="edgeStyle=orthogonalEdgeStyle;rounded=0;orthogonalLoop=1;jettySize=auto;html=1;dashed=1;dashPattern=12 12;" edge="1" parent="1" source="YksOV0gF3LN-m6YiR59G-6" target="YksOV0gF3LN-m6YiR59G-10">
          <mxGeometry relative="1" as="geometry" />
        </mxCell>
        <mxCell id="YksOV0gF3LN-m6YiR59G-31" style="edgeStyle=orthogonalEdgeStyle;rounded=0;orthogonalLoop=1;jettySize=auto;html=1;exitX=0.75;exitY=1;exitDx=0;exitDy=0;exitPerimeter=0;dashed=1;dashPattern=12 12;" edge="1" parent="1" source="YksOV0gF3LN-m6YiR59G-6" target="YksOV0gF3LN-m6YiR59G-11">
          <mxGeometry relative="1" as="geometry" />
        </mxCell>
        <object placeholders="1" c4Name="AvanadeStore.Gateway" c4Type="Container" c4Technology="Ocelot" c4Description="Ponto de entrada.&#xa;Gerencia tráfego de dados." label="&lt;font style=&quot;font-size: 16px&quot;&gt;&lt;b&gt;%c4Name%&lt;/b&gt;&lt;/font&gt;&lt;div&gt;[%c4Type%: %c4Technology%]&lt;/div&gt;&lt;br&gt;&lt;div&gt;&lt;font style=&quot;font-size: 11px&quot;&gt;&lt;font&gt;%c4Description%&lt;/font&gt;&lt;/font&gt;&lt;/div&gt;" id="YksOV0gF3LN-m6YiR59G-6">
          <mxCell style="rounded=1;whiteSpace=wrap;html=1;fontSize=11;labelBackgroundColor=none;fillColor=light-dark(#23A2D9,#006666);fontColor=default;align=center;arcSize=10;strokeColor=#0E7DAD;metaEdit=1;resizable=0;points=[[0.25,0,0],[0.5,0,0],[0.75,0,0],[1,0.25,0],[1,0.5,0],[1,0.75,0],[0.75,1,0],[0.5,1,0],[0.25,1,0],[0,0.75,0],[0,0.5,0],[0,0.25,0]];" vertex="1" parent="1">
            <mxGeometry x="560" y="350" width="240" height="120" as="geometry" />
          </mxCell>
        </object>
        <object placeholders="1" c4Name="Monitoramento" c4Type="Container" c4Technology="Prometheus/ Grafana" c4Description="Monitoramento de métricas da aplicação" label="&lt;font style=&quot;font-size: 16px&quot;&gt;&lt;b&gt;%c4Name%&lt;/b&gt;&lt;/font&gt;&lt;div&gt;[%c4Type%: %c4Technology%]&lt;/div&gt;&lt;br&gt;&lt;div&gt;&lt;font style=&quot;font-size: 11px&quot;&gt;&lt;font&gt;%c4Description%&lt;/font&gt;&lt;/font&gt;&lt;/div&gt;" id="YksOV0gF3LN-m6YiR59G-7">
          <mxCell style="rounded=1;whiteSpace=wrap;html=1;fontSize=11;labelBackgroundColor=none;fillColor=light-dark(#FFFFFF,#994C00);fontColor=default;align=center;arcSize=10;strokeColor=none;metaEdit=1;resizable=0;points=[[0.25,0,0],[0.5,0,0],[0.75,0,0],[1,0.25,0],[1,0.5,0],[1,0.75,0],[0.75,1,0],[0.5,1,0],[0.25,1,0],[0,0.75,0],[0,0.5,0],[0,0.25,0]];" vertex="1" parent="1">
            <mxGeometry x="1070" y="350" width="240" height="120" as="geometry" />
          </mxCell>
        </object>
        <object placeholders="1" c4Name="AvanadeStore.Auth" c4Type="Container" c4Technology="NET9" c4Description="Seriviço de autenticação de usuários" label="&lt;font style=&quot;font-size: 16px&quot;&gt;&lt;b&gt;%c4Name%&lt;/b&gt;&lt;/font&gt;&lt;div&gt;[%c4Type%: %c4Technology%]&lt;/div&gt;&lt;br&gt;&lt;div&gt;&lt;font style=&quot;font-size: 11px&quot;&gt;&lt;font&gt;%c4Description%&lt;/font&gt;&lt;/font&gt;&lt;/div&gt;" id="YksOV0gF3LN-m6YiR59G-8">
          <mxCell style="rounded=1;whiteSpace=wrap;html=1;fontSize=11;labelBackgroundColor=none;fillColor=#23A2D9;fontColor=default;align=center;arcSize=10;strokeColor=#0E7DAD;metaEdit=1;resizable=0;points=[[0.25,0,0],[0.5,0,0],[0.75,0,0],[1,0.25,0],[1,0.5,0],[1,0.75,0],[0.75,1,0],[0.5,1,0],[0.25,1,0],[0,0.75,0],[0,0.5,0],[0,0.25,0]];" vertex="1" parent="1">
            <mxGeometry x="180" y="630" width="240" height="120" as="geometry" />
          </mxCell>
        </object>
        <object placeholders="1" c4Name="Banco de dados Auth" c4Type="Container" c4Technology="SQL Server" c4Description="Armazena cadastro dos usuários" label="&lt;font style=&quot;font-size: 16px&quot;&gt;&lt;b&gt;%c4Name%&lt;/b&gt;&lt;/font&gt;&lt;div&gt;[%c4Type%:&amp;nbsp;%c4Technology%]&lt;/div&gt;&lt;br&gt;&lt;div&gt;&lt;font style=&quot;font-size: 11px&quot;&gt;&lt;font&gt;%c4Description%&lt;/font&gt;&lt;/font&gt;&lt;/div&gt;" id="YksOV0gF3LN-m6YiR59G-9">
          <mxCell style="shape=cylinder3;size=15;whiteSpace=wrap;html=1;boundedLbl=1;rounded=0;labelBackgroundColor=none;fillColor=light-dark(#23A2D9,#006600);fontSize=12;fontColor=default;align=center;strokeColor=#0E7DAD;metaEdit=1;points=[[0.5,0,0],[1,0.25,0],[1,0.5,0],[1,0.75,0],[0.5,1,0],[0,0.75,0],[0,0.5,0],[0,0.25,0]];resizable=0;" vertex="1" parent="1">
            <mxGeometry x="180" y="900" width="240" height="120" as="geometry" />
          </mxCell>
        </object>
        <mxCell id="YksOV0gF3LN-m6YiR59G-27" style="edgeStyle=orthogonalEdgeStyle;rounded=0;orthogonalLoop=1;jettySize=auto;html=1;" edge="1" parent="1" source="YksOV0gF3LN-m6YiR59G-10" target="YksOV0gF3LN-m6YiR59G-12">
          <mxGeometry relative="1" as="geometry" />
        </mxCell>
        <mxCell id="YksOV0gF3LN-m6YiR59G-28" value="CRUD de produtos" style="edgeLabel;html=1;align=center;verticalAlign=middle;resizable=0;points=[];" vertex="1" connectable="0" parent="YksOV0gF3LN-m6YiR59G-27">
          <mxGeometry x="-0.1263" y="-1" relative="1" as="geometry">
            <mxPoint x="1" y="44" as="offset" />
          </mxGeometry>
        </mxCell>
        <object placeholders="1" c4Name="AvanadeStore.Inventory" c4Type="Container" c4Technology="NET9" c4Description="Serviço de controle de estoque." label="&lt;font style=&quot;font-size: 16px&quot;&gt;&lt;b&gt;%c4Name%&lt;/b&gt;&lt;/font&gt;&lt;div&gt;[%c4Type%: %c4Technology%]&lt;/div&gt;&lt;br&gt;&lt;div&gt;&lt;font style=&quot;font-size: 11px&quot;&gt;&lt;font&gt;%c4Description%&lt;/font&gt;&lt;/font&gt;&lt;/div&gt;" id="YksOV0gF3LN-m6YiR59G-10">
          <mxCell style="rounded=1;whiteSpace=wrap;html=1;fontSize=11;labelBackgroundColor=none;fillColor=#23A2D9;fontColor=default;align=center;arcSize=10;strokeColor=#0E7DAD;metaEdit=1;resizable=0;points=[[0.25,0,0],[0.5,0,0],[0.75,0,0],[1,0.25,0],[1,0.5,0],[1,0.75,0],[0.75,1,0],[0.5,1,0],[0.25,1,0],[0,0.75,0],[0,0.5,0],[0,0.25,0]];" vertex="1" parent="1">
            <mxGeometry x="560" y="630" width="240" height="120" as="geometry" />
          </mxCell>
        </object>
        <mxCell id="YksOV0gF3LN-m6YiR59G-29" value="CRUD de pedidos" style="edgeStyle=orthogonalEdgeStyle;rounded=0;orthogonalLoop=1;jettySize=auto;html=1;" edge="1" parent="1" source="YksOV0gF3LN-m6YiR59G-11" target="YksOV0gF3LN-m6YiR59G-13">
          <mxGeometry x="0.4667" relative="1" as="geometry">
            <mxPoint as="offset" />
          </mxGeometry>
        </mxCell>
        <object placeholders="1" c4Name="AvanadeStore.Sales" c4Type="Container" c4Technology="NET9" c4Description="Serviço de gerenciamento de vendas" label="&lt;font style=&quot;font-size: 16px&quot;&gt;&lt;b&gt;%c4Name%&lt;/b&gt;&lt;/font&gt;&lt;div&gt;[%c4Type%: %c4Technology%]&lt;/div&gt;&lt;br&gt;&lt;div&gt;&lt;font style=&quot;font-size: 11px&quot;&gt;&lt;font&gt;%c4Description%&lt;/font&gt;&lt;/font&gt;&lt;/div&gt;" id="YksOV0gF3LN-m6YiR59G-11">
          <mxCell style="rounded=1;whiteSpace=wrap;html=1;fontSize=11;labelBackgroundColor=none;fillColor=#23A2D9;fontColor=default;align=center;arcSize=10;strokeColor=#0E7DAD;metaEdit=1;resizable=0;points=[[0.25,0,0],[0.5,0,0],[0.75,0,0],[1,0.25,0],[1,0.5,0],[1,0.75,0],[0.75,1,0],[0.5,1,0],[0.25,1,0],[0,0.75,0],[0,0.5,0],[0,0.25,0]];" vertex="1" parent="1">
            <mxGeometry x="1240" y="630" width="240" height="120" as="geometry" />
          </mxCell>
        </object>
        <object placeholders="1" c4Name="Banco de dados Inventory" c4Type="Container" c4Technology="SQL Server" c4Description="Armazena produtos cadastrados" label="&lt;font style=&quot;font-size: 16px&quot;&gt;&lt;b&gt;%c4Name%&lt;/b&gt;&lt;/font&gt;&lt;div&gt;[%c4Type%:&amp;nbsp;%c4Technology%]&lt;/div&gt;&lt;br&gt;&lt;div&gt;&lt;font style=&quot;font-size: 11px&quot;&gt;&lt;font&gt;%c4Description%&lt;/font&gt;&lt;/font&gt;&lt;/div&gt;" id="YksOV0gF3LN-m6YiR59G-12">
          <mxCell style="shape=cylinder3;size=15;whiteSpace=wrap;html=1;boundedLbl=1;rounded=0;labelBackgroundColor=none;fillColor=light-dark(#23A2D9,#006600);fontSize=12;fontColor=default;align=center;strokeColor=#0E7DAD;metaEdit=1;points=[[0.5,0,0],[1,0.25,0],[1,0.5,0],[1,0.75,0],[0.5,1,0],[0,0.75,0],[0,0.5,0],[0,0.25,0]];resizable=0;" vertex="1" parent="1">
            <mxGeometry x="560" y="900" width="240" height="120" as="geometry" />
          </mxCell>
        </object>
        <object placeholders="1" c4Name="Banco de dados Sales" c4Type="Container" c4Technology="SQL Server" c4Description="Armazena dados dos pedidos" label="&lt;font style=&quot;font-size: 16px&quot;&gt;&lt;b&gt;%c4Name%&lt;/b&gt;&lt;/font&gt;&lt;div&gt;[%c4Type%:&amp;nbsp;%c4Technology%]&lt;/div&gt;&lt;br&gt;&lt;div&gt;&lt;font style=&quot;font-size: 11px&quot;&gt;&lt;font&gt;%c4Description%&lt;/font&gt;&lt;/font&gt;&lt;/div&gt;" id="YksOV0gF3LN-m6YiR59G-13">
          <mxCell style="shape=cylinder3;size=15;whiteSpace=wrap;html=1;boundedLbl=1;rounded=0;labelBackgroundColor=none;fillColor=light-dark(#23A2D9,#006600);fontSize=12;fontColor=default;align=center;strokeColor=#0E7DAD;metaEdit=1;points=[[0.5,0,0],[1,0.25,0],[1,0.5,0],[1,0.75,0],[0.5,1,0],[0,0.75,0],[0,0.5,0],[0,0.25,0]];resizable=0;" vertex="1" parent="1">
            <mxGeometry x="1240" y="900" width="240" height="120" as="geometry" />
          </mxCell>
        </object>
        <object placeholders="1" c4Name="RabbitMQ" c4Type="Container" c4Technology="RabbitMQ" c4Description="Realiza a orquestração das mensagens de gerenciamento estoque entre os microsserviços" label="&lt;font style=&quot;font-size: 16px&quot;&gt;&lt;b&gt;%c4Name%&lt;/b&gt;&lt;/font&gt;&lt;div&gt;[%c4Type%:&amp;nbsp;%c4Technology%]&lt;/div&gt;&lt;br&gt;&lt;div&gt;&lt;font style=&quot;font-size: 11px&quot;&gt;&lt;font color=&quot;#E6E6E6&quot;&gt;%c4Description%&lt;/font&gt;&lt;/div&gt;" id="YksOV0gF3LN-m6YiR59G-14">
          <mxCell style="shape=cylinder3;size=15;direction=south;whiteSpace=wrap;html=1;boundedLbl=1;rounded=0;labelBackgroundColor=none;fillColor=light-dark(#23A2D9,#FFFF99);fontSize=12;fontColor=#ffffff;align=center;strokeColor=none;metaEdit=1;points=[[0.5,0,0],[1,0.25,0],[1,0.5,0],[1,0.75,0],[0.5,1,0],[0,0.75,0],[0,0.5,0],[0,0.25,0]];resizable=0;" vertex="1" parent="1">
            <mxGeometry x="920" y="820" width="240" height="120" as="geometry" />
          </mxCell>
        </object>
        <mxCell id="YksOV0gF3LN-m6YiR59G-15" style="edgeStyle=orthogonalEdgeStyle;rounded=0;orthogonalLoop=1;jettySize=auto;html=1;entryX=0.25;entryY=0;entryDx=0;entryDy=0;entryPerimeter=0;exitX=0.5;exitY=1;exitDx=0;exitDy=0;exitPerimeter=0;" edge="1" parent="1" source="YksOV0gF3LN-m6YiR59G-1" target="YksOV0gF3LN-m6YiR59G-6">
          <mxGeometry relative="1" as="geometry" />
        </mxCell>
        <mxCell id="YksOV0gF3LN-m6YiR59G-18" value="Realiza pedidos&lt;div&gt;&amp;nbsp;e acompanha status&lt;/div&gt;" style="edgeLabel;html=1;align=center;verticalAlign=middle;resizable=0;points=[];" vertex="1" connectable="0" parent="YksOV0gF3LN-m6YiR59G-15">
          <mxGeometry x="-0.0396" y="2" relative="1" as="geometry">
            <mxPoint x="-108" y="-48" as="offset" />
          </mxGeometry>
        </mxCell>
        <mxCell id="YksOV0gF3LN-m6YiR59G-17" style="edgeStyle=orthogonalEdgeStyle;rounded=0;orthogonalLoop=1;jettySize=auto;html=1;entryX=0.75;entryY=0;entryDx=0;entryDy=0;entryPerimeter=0;exitX=0.5;exitY=1;exitDx=0;exitDy=0;exitPerimeter=0;" edge="1" parent="1" source="YksOV0gF3LN-m6YiR59G-3" target="YksOV0gF3LN-m6YiR59G-6">
          <mxGeometry relative="1" as="geometry" />
        </mxCell>
        <mxCell id="YksOV0gF3LN-m6YiR59G-20" value="Gerencia pedidos" style="edgeLabel;html=1;align=center;verticalAlign=middle;resizable=0;points=[];" vertex="1" connectable="0" parent="YksOV0gF3LN-m6YiR59G-17">
          <mxGeometry x="-0.6944" y="2" relative="1" as="geometry">
            <mxPoint x="-2" y="-20" as="offset" />
          </mxGeometry>
        </mxCell>
        <mxCell id="YksOV0gF3LN-m6YiR59G-23" style="edgeStyle=orthogonalEdgeStyle;rounded=0;orthogonalLoop=1;jettySize=auto;html=1;entryX=0.5;entryY=0;entryDx=0;entryDy=0;entryPerimeter=0;" edge="1" parent="1" source="YksOV0gF3LN-m6YiR59G-8" target="YksOV0gF3LN-m6YiR59G-9">
          <mxGeometry relative="1" as="geometry" />
        </mxCell>
        <mxCell id="YksOV0gF3LN-m6YiR59G-24" value="CRUD de usuários" style="edgeLabel;html=1;align=center;verticalAlign=middle;resizable=0;points=[];" vertex="1" connectable="0" parent="YksOV0gF3LN-m6YiR59G-23">
          <mxGeometry x="-0.0053" y="-2" relative="1" as="geometry">
            <mxPoint x="2" y="36" as="offset" />
          </mxGeometry>
        </mxCell>
        <mxCell id="YksOV0gF3LN-m6YiR59G-25" style="edgeStyle=orthogonalEdgeStyle;rounded=0;orthogonalLoop=1;jettySize=auto;html=1;entryX=1;entryY=0.5;entryDx=0;entryDy=0;entryPerimeter=0;exitX=0;exitY=0.5;exitDx=0;exitDy=0;exitPerimeter=0;" edge="1" parent="1" source="YksOV0gF3LN-m6YiR59G-7" target="YksOV0gF3LN-m6YiR59G-6">
          <mxGeometry relative="1" as="geometry">
            <Array as="points">
              <mxPoint x="1060" y="410" />
              <mxPoint x="1060" y="410" />
            </Array>
          </mxGeometry>
        </mxCell>
        <mxCell id="YksOV0gF3LN-m6YiR59G-26" value="Consulta métricas&lt;div&gt;da aplicação&lt;/div&gt;" style="edgeLabel;html=1;align=center;verticalAlign=middle;resizable=0;points=[];" vertex="1" connectable="0" parent="YksOV0gF3LN-m6YiR59G-25">
          <mxGeometry x="-0.2219" y="3" relative="1" as="geometry">
            <mxPoint x="-15" y="-3" as="offset" />
          </mxGeometry>
        </mxCell>
        <object placeholders="1" c4Name="System name" c4Type="SystemScopeBoundary" c4Application="AvanadeStore" label="&lt;font style=&quot;font-size: 16px&quot;&gt;&lt;b&gt;&lt;div style=&quot;text-align: left&quot;&gt;%c4Name%&lt;/div&gt;&lt;/b&gt;&lt;/font&gt;&lt;div style=&quot;text-align: left&quot;&gt;[%c4Application%]&lt;/div&gt;" id="YksOV0gF3LN-m6YiR59G-32">
          <mxCell style="rounded=1;fontSize=11;whiteSpace=wrap;html=1;dashed=1;arcSize=20;fillColor=none;strokeColor=#666666;fontColor=#333333;labelBackgroundColor=none;align=left;verticalAlign=bottom;labelBorderColor=none;spacingTop=0;spacing=10;dashPattern=8 4;metaEdit=1;rotatable=0;perimeter=rectanglePerimeter;noLabel=0;labelPadding=0;allowArrows=0;connectable=0;expand=0;recursiveResize=0;editable=1;pointerEvents=0;absoluteArcSize=1;points=[[0.25,0,0],[0.5,0,0],[0.75,0,0],[1,0.25,0],[1,0.5,0],[1,0.75,0],[0.75,1,0],[0.5,1,0],[0.25,1,0],[0,0.75,0],[0,0.5,0],[0,0.25,0]];" vertex="1" parent="1">
            <mxGeometry x="130" y="320" width="1450" height="760" as="geometry" />
          </mxCell>
        </object>
        <object placeholders="1" c4Name="[Containers] AvanadeStore" c4Type="ContainerDiagramTitle" c4Description="Visão de containers da aplicação&#xa;AvanadeStore&#xa;2025" label="&lt;font style=&quot;font-size: 16px&quot;&gt;&lt;b&gt;&lt;div style=&quot;text-align: left&quot;&gt;%c4Name%&lt;/div&gt;&lt;/b&gt;&lt;/font&gt;&lt;div style=&quot;text-align: left&quot;&gt;%c4Description%&lt;/div&gt;" id="YksOV0gF3LN-m6YiR59G-35">
          <mxCell style="text;html=1;strokeColor=none;fillColor=none;align=left;verticalAlign=top;whiteSpace=wrap;rounded=0;metaEdit=1;allowArrows=0;resizable=1;rotatable=0;connectable=0;recursiveResize=0;expand=0;pointerEvents=0;points=[[0.25,0,0],[0.5,0,0],[0.75,0,0],[1,0.25,0],[1,0.5,0],[1,0.75,0],[0.75,1,0],[0.5,1,0],[0.25,1,0],[0,0.75,0],[0,0.5,0],[0,0.25,0]];" vertex="1" parent="1">
            <mxGeometry x="70" y="1100" width="260" height="40" as="geometry" />
          </mxCell>
        </object>
        <mxCell id="uLfXIMFhi3PMgKv0y5K0-1" style="edgeStyle=orthogonalEdgeStyle;rounded=0;orthogonalLoop=1;jettySize=auto;html=1;entryX=0;entryY=0.75;entryDx=0;entryDy=0;entryPerimeter=0;" edge="1" parent="1" source="YksOV0gF3LN-m6YiR59G-10" target="YksOV0gF3LN-m6YiR59G-14">
          <mxGeometry relative="1" as="geometry" />
        </mxCell>
        <mxCell id="uLfXIMFhi3PMgKv0y5K0-7" value="Publish:&amp;nbsp;&lt;div&gt;atualizar-status-pedido&lt;/div&gt;" style="edgeLabel;html=1;align=left;verticalAlign=middle;resizable=0;points=[];" vertex="1" connectable="0" parent="uLfXIMFhi3PMgKv0y5K0-1">
          <mxGeometry x="0.3095" y="-2" relative="1" as="geometry">
            <mxPoint x="-138" y="-23" as="offset" />
          </mxGeometry>
        </mxCell>
        <mxCell id="uLfXIMFhi3PMgKv0y5K0-2" style="edgeStyle=orthogonalEdgeStyle;rounded=0;orthogonalLoop=1;jettySize=auto;html=1;entryX=0;entryY=0.25;entryDx=0;entryDy=0;entryPerimeter=0;" edge="1" parent="1" source="YksOV0gF3LN-m6YiR59G-11" target="YksOV0gF3LN-m6YiR59G-14">
          <mxGeometry relative="1" as="geometry" />
        </mxCell>
        <mxCell id="uLfXIMFhi3PMgKv0y5K0-3" value="Publish:&amp;nbsp;&lt;div&gt;validar-estoque&lt;div&gt;&lt;br&gt;&lt;div&gt;&lt;span style=&quot;background-color: light-dark(#ffffff, var(--ge-dark-color, #121212)); color: light-dark(rgb(0, 0, 0), rgb(255, 255, 255));&quot;&gt;Publish&lt;/span&gt;:&amp;nbsp;&lt;/div&gt;&lt;div&gt;cancelar-pedido&lt;/div&gt;&lt;/div&gt;&lt;/div&gt;" style="edgeLabel;html=1;align=left;verticalAlign=middle;resizable=0;points=[];" vertex="1" connectable="0" parent="uLfXIMFhi3PMgKv0y5K0-2">
          <mxGeometry x="0.0974" y="-1" relative="1" as="geometry">
            <mxPoint x="-29" y="42" as="offset" />
          </mxGeometry>
        </mxCell>
        <mxCell id="uLfXIMFhi3PMgKv0y5K0-4" style="edgeStyle=orthogonalEdgeStyle;rounded=0;orthogonalLoop=1;jettySize=auto;html=1;entryX=0.25;entryY=1;entryDx=0;entryDy=0;entryPerimeter=0;" edge="1" parent="1" source="YksOV0gF3LN-m6YiR59G-14" target="YksOV0gF3LN-m6YiR59G-11">
          <mxGeometry relative="1" as="geometry">
            <Array as="points">
              <mxPoint x="1210" y="840" />
              <mxPoint x="1210" y="790" />
              <mxPoint x="1300" y="790" />
            </Array>
          </mxGeometry>
        </mxCell>
        <mxCell id="uLfXIMFhi3PMgKv0y5K0-6" value="Consume:&lt;div&gt;atualizar-status-pedido&lt;/div&gt;" style="edgeLabel;html=1;align=left;verticalAlign=middle;resizable=0;points=[];" vertex="1" connectable="0" parent="uLfXIMFhi3PMgKv0y5K0-4">
          <mxGeometry x="-0.3233" relative="1" as="geometry">
            <mxPoint x="-30" y="-2" as="offset" />
          </mxGeometry>
        </mxCell>
        <mxCell id="uLfXIMFhi3PMgKv0y5K0-5" style="edgeStyle=orthogonalEdgeStyle;rounded=0;orthogonalLoop=1;jettySize=auto;html=1;entryX=0.75;entryY=1;entryDx=0;entryDy=0;entryPerimeter=0;" edge="1" parent="1" source="YksOV0gF3LN-m6YiR59G-14" target="YksOV0gF3LN-m6YiR59G-10">
          <mxGeometry relative="1" as="geometry">
            <Array as="points">
              <mxPoint x="740" y="840" />
            </Array>
          </mxGeometry>
        </mxCell>
        <mxCell id="uLfXIMFhi3PMgKv0y5K0-8" value="&lt;div style=&quot;&quot;&gt;&lt;span style=&quot;background-color: light-dark(#ffffff, var(--ge-dark-color, #121212)); color: light-dark(rgb(0, 0, 0), rgb(255, 255, 255));&quot;&gt;Consume:&amp;nbsp;&lt;/span&gt;&lt;/div&gt;&lt;div&gt;&lt;div style=&quot;&quot;&gt;&lt;span style=&quot;background-color: light-dark(#ffffff, var(--ge-dark-color, #121212)); color: light-dark(rgb(0, 0, 0), rgb(255, 255, 255));&quot;&gt;validar-estoque&lt;/span&gt;&lt;/div&gt;&lt;div style=&quot;&quot;&gt;&lt;span style=&quot;background-color: light-dark(#ffffff, var(--ge-dark-color, #121212)); color: light-dark(rgb(0, 0, 0), rgb(255, 255, 255));&quot;&gt;&lt;br&gt;&lt;/span&gt;&lt;/div&gt;&lt;div style=&quot;&quot;&gt;&lt;span style=&quot;color: light-dark(rgb(0, 0, 0), rgb(255, 255, 255));&quot;&gt;Consume&lt;/span&gt;:&amp;nbsp;&lt;/div&gt;&lt;div style=&quot;&quot;&gt;cancelar-pedido&lt;/div&gt;&lt;/div&gt;" style="edgeLabel;html=1;align=left;verticalAlign=middle;resizable=0;points=[];" vertex="1" connectable="0" parent="uLfXIMFhi3PMgKv0y5K0-5">
          <mxGeometry x="-0.146" y="-2" relative="1" as="geometry">
            <mxPoint x="-15" as="offset" />
          </mxGeometry>
        </mxCell>
      </root>
    </mxGraphModel>
  </diagram>
  <diagram id="qC434qGbWfgoykqWZq4j" name="Fluxo-pedido">
    <mxGraphModel dx="1588" dy="818" grid="1" gridSize="10" guides="1" tooltips="1" connect="1" arrows="1" fold="1" page="1" pageScale="1" pageWidth="1654" pageHeight="2336" math="0" shadow="0">
      <root>
        <mxCell id="0" />
        <mxCell id="1" parent="0" />
        <mxCell id="ZnArlOAVoOyFOqRgvzij-1" value="" style="rounded=0;whiteSpace=wrap;html=1;fillColor=none;" vertex="1" parent="1">
          <mxGeometry x="180" y="70" width="730" height="250" as="geometry" />
        </mxCell>
        <mxCell id="ZnArlOAVoOyFOqRgvzij-2" style="edgeStyle=orthogonalEdgeStyle;rounded=0;orthogonalLoop=1;jettySize=auto;html=1;" edge="1" parent="1" source="ZnArlOAVoOyFOqRgvzij-3" target="ZnArlOAVoOyFOqRgvzij-6">
          <mxGeometry relative="1" as="geometry" />
        </mxCell>
        <mxCell id="iv4ynPuQOGyRrMAF7wSP-1" style="edgeStyle=orthogonalEdgeStyle;rounded=0;orthogonalLoop=1;jettySize=auto;html=1;" edge="1" parent="1" source="ZnArlOAVoOyFOqRgvzij-3" target="ZnArlOAVoOyFOqRgvzij-7">
          <mxGeometry relative="1" as="geometry">
            <Array as="points">
              <mxPoint x="340" y="175" />
              <mxPoint x="340" y="245" />
            </Array>
          </mxGeometry>
        </mxCell>
        <mxCell id="ZnArlOAVoOyFOqRgvzij-3" value="Criado" style="rounded=1;whiteSpace=wrap;html=1;fillColor=#f5f5f5;strokeColor=#666666;gradientColor=#b3b3b3;" vertex="1" parent="1">
          <mxGeometry x="200" y="160" width="120" height="30" as="geometry" />
        </mxCell>
        <mxCell id="ZnArlOAVoOyFOqRgvzij-4" style="edgeStyle=orthogonalEdgeStyle;rounded=0;orthogonalLoop=1;jettySize=auto;html=1;" edge="1" parent="1" source="ZnArlOAVoOyFOqRgvzij-6" target="ZnArlOAVoOyFOqRgvzij-10">
          <mxGeometry relative="1" as="geometry" />
        </mxCell>
        <mxCell id="iv4ynPuQOGyRrMAF7wSP-2" style="edgeStyle=orthogonalEdgeStyle;rounded=0;orthogonalLoop=1;jettySize=auto;html=1;" edge="1" parent="1" source="ZnArlOAVoOyFOqRgvzij-6" target="ZnArlOAVoOyFOqRgvzij-11">
          <mxGeometry relative="1" as="geometry">
            <Array as="points">
              <mxPoint x="520" y="175" />
              <mxPoint x="520" y="245" />
            </Array>
          </mxGeometry>
        </mxCell>
        <mxCell id="ZnArlOAVoOyFOqRgvzij-6" value="Confirmado" style="rounded=1;whiteSpace=wrap;html=1;fillColor=#dae8fc;strokeColor=#6c8ebf;gradientColor=#7ea6e0;" vertex="1" parent="1">
          <mxGeometry x="385" y="160" width="120" height="30" as="geometry" />
        </mxCell>
        <mxCell id="ZnArlOAVoOyFOqRgvzij-7" value="Rejeitado&lt;div&gt;&lt;font style=&quot;font-size: 8px;&quot;&gt;(Falta de estoque)&lt;/font&gt;&lt;/div&gt;" style="rounded=1;whiteSpace=wrap;html=1;fillColor=#f8cecc;strokeColor=#b85450;gradientColor=#ea6b66;" vertex="1" parent="1">
          <mxGeometry x="385" y="230" width="120" height="30" as="geometry" />
        </mxCell>
        <mxCell id="ZnArlOAVoOyFOqRgvzij-8" style="edgeStyle=orthogonalEdgeStyle;rounded=0;orthogonalLoop=1;jettySize=auto;html=1;" edge="1" parent="1" source="ZnArlOAVoOyFOqRgvzij-10" target="ZnArlOAVoOyFOqRgvzij-12">
          <mxGeometry relative="1" as="geometry" />
        </mxCell>
        <mxCell id="iv4ynPuQOGyRrMAF7wSP-4" style="edgeStyle=orthogonalEdgeStyle;rounded=0;orthogonalLoop=1;jettySize=auto;html=1;" edge="1" parent="1" source="ZnArlOAVoOyFOqRgvzij-10" target="ZnArlOAVoOyFOqRgvzij-11">
          <mxGeometry relative="1" as="geometry" />
        </mxCell>
        <mxCell id="ZnArlOAVoOyFOqRgvzij-10" value="Em separação" style="rounded=1;whiteSpace=wrap;html=1;fillColor=#d0cee2;strokeColor=#56517e;" vertex="1" parent="1">
          <mxGeometry x="570" y="160" width="120" height="30" as="geometry" />
        </mxCell>
        <mxCell id="ZnArlOAVoOyFOqRgvzij-11" value="Cancelado&lt;div&gt;&lt;font style=&quot;font-size: 8px;&quot;&gt;(Ação do cliente)&lt;/font&gt;&lt;/div&gt;" style="rounded=1;whiteSpace=wrap;html=1;fillColor=#f8cecc;strokeColor=#b85450;gradientColor=#ea6b66;" vertex="1" parent="1">
          <mxGeometry x="570" y="230" width="120" height="30" as="geometry" />
        </mxCell>
        <mxCell id="ZnArlOAVoOyFOqRgvzij-12" value="Finalizado&lt;br&gt;&lt;font style=&quot;font-size: 8px;&quot;&gt;(Pronto para entrega/retirada)&lt;/font&gt;" style="rounded=1;whiteSpace=wrap;html=1;fillColor=#d5e8d4;strokeColor=#82b366;gradientColor=#97d077;" vertex="1" parent="1">
          <mxGeometry x="755" y="160" width="120" height="30" as="geometry" />
        </mxCell>
        <mxCell id="ZnArlOAVoOyFOqRgvzij-13" value="&lt;font style=&quot;font-size: 24px;&quot;&gt;Fluxo do status do pedido&lt;/font&gt;" style="text;html=1;align=center;verticalAlign=middle;whiteSpace=wrap;rounded=0;fontSize=11;" vertex="1" parent="1">
          <mxGeometry x="190" y="80" width="280" height="30" as="geometry" />
        </mxCell>
      </root>
    </mxGraphModel>
  </diagram>
  <diagram id="Q8hyL1W4oanEAdpP4uZN" name="Classes">
    <mxGraphModel dx="1089" dy="561" grid="1" gridSize="10" guides="1" tooltips="1" connect="1" arrows="1" fold="1" page="1" pageScale="1" pageWidth="1654" pageHeight="2336" math="0" shadow="0">
      <root>
        <mxCell id="0" />
        <mxCell id="1" parent="0" />
        <mxCell id="Nu6f8mAnhE5_klJs1Bli-1" value="User" style="swimlane;fontStyle=1;align=center;verticalAlign=top;childLayout=stackLayout;horizontal=1;startSize=26;horizontalStack=0;resizeParent=1;resizeParentMax=0;resizeLast=0;collapsible=1;marginBottom=0;whiteSpace=wrap;html=1;" vertex="1" parent="1">
          <mxGeometry x="140" y="230" width="160" height="268" as="geometry" />
        </mxCell>
        <mxCell id="Nu6f8mAnhE5_klJs1Bli-2" value="- Id: UUIDv7" style="text;strokeColor=none;fillColor=none;align=left;verticalAlign=top;spacingLeft=4;spacingRight=4;overflow=hidden;rotatable=0;points=[[0,0.5],[1,0.5]];portConstraint=eastwest;whiteSpace=wrap;html=1;" vertex="1" parent="Nu6f8mAnhE5_klJs1Bli-1">
          <mxGeometry y="26" width="160" height="26" as="geometry" />
        </mxCell>
        <mxCell id="Nu6f8mAnhE5_klJs1Bli-5" value="- CreateAt: DateTime" style="text;strokeColor=none;fillColor=none;align=left;verticalAlign=top;spacingLeft=4;spacingRight=4;overflow=hidden;rotatable=0;points=[[0,0.5],[1,0.5]];portConstraint=eastwest;whiteSpace=wrap;html=1;" vertex="1" parent="Nu6f8mAnhE5_klJs1Bli-1">
          <mxGeometry y="52" width="160" height="26" as="geometry" />
        </mxCell>
        <mxCell id="Nu6f8mAnhE5_klJs1Bli-6" value="- Active: bool" style="text;strokeColor=none;fillColor=none;align=left;verticalAlign=top;spacingLeft=4;spacingRight=4;overflow=hidden;rotatable=0;points=[[0,0.5],[1,0.5]];portConstraint=eastwest;whiteSpace=wrap;html=1;" vertex="1" parent="Nu6f8mAnhE5_klJs1Bli-1">
          <mxGeometry y="78" width="160" height="26" as="geometry" />
        </mxCell>
        <mxCell id="Nu6f8mAnhE5_klJs1Bli-28" value="- Name: string" style="text;strokeColor=none;fillColor=none;align=left;verticalAlign=top;spacingLeft=4;spacingRight=4;overflow=hidden;rotatable=0;points=[[0,0.5],[1,0.5]];portConstraint=eastwest;whiteSpace=wrap;html=1;" vertex="1" parent="Nu6f8mAnhE5_klJs1Bli-1">
          <mxGeometry y="104" width="160" height="26" as="geometry" />
        </mxCell>
        <mxCell id="Nu6f8mAnhE5_klJs1Bli-30" value="- Email: string" style="text;strokeColor=none;fillColor=none;align=left;verticalAlign=top;spacingLeft=4;spacingRight=4;overflow=hidden;rotatable=0;points=[[0,0.5],[1,0.5]];portConstraint=eastwest;whiteSpace=wrap;html=1;" vertex="1" parent="Nu6f8mAnhE5_klJs1Bli-1">
          <mxGeometry y="130" width="160" height="26" as="geometry" />
        </mxCell>
        <mxCell id="Nu6f8mAnhE5_klJs1Bli-33" value="- PasswordHash: string" style="text;strokeColor=none;fillColor=none;align=left;verticalAlign=top;spacingLeft=4;spacingRight=4;overflow=hidden;rotatable=0;points=[[0,0.5],[1,0.5]];portConstraint=eastwest;whiteSpace=wrap;html=1;" vertex="1" parent="Nu6f8mAnhE5_klJs1Bli-1">
          <mxGeometry y="156" width="160" height="26" as="geometry" />
        </mxCell>
        <mxCell id="Nu6f8mAnhE5_klJs1Bli-12" value="- Role: Enum&amp;lt;Role&amp;gt;" style="text;strokeColor=none;fillColor=none;align=left;verticalAlign=top;spacingLeft=4;spacingRight=4;overflow=hidden;rotatable=0;points=[[0,0.5],[1,0.5]];portConstraint=eastwest;whiteSpace=wrap;html=1;" vertex="1" parent="Nu6f8mAnhE5_klJs1Bli-1">
          <mxGeometry y="182" width="160" height="26" as="geometry" />
        </mxCell>
        <mxCell id="Nu6f8mAnhE5_klJs1Bli-3" value="" style="line;strokeWidth=1;fillColor=none;align=left;verticalAlign=middle;spacingTop=-1;spacingLeft=3;spacingRight=3;rotatable=0;labelPosition=right;points=[];portConstraint=eastwest;strokeColor=inherit;" vertex="1" parent="Nu6f8mAnhE5_klJs1Bli-1">
          <mxGeometry y="208" width="160" height="8" as="geometry" />
        </mxCell>
        <mxCell id="Nu6f8mAnhE5_klJs1Bli-4" value="+ DesactivateUser(): void" style="text;strokeColor=none;fillColor=none;align=left;verticalAlign=top;spacingLeft=4;spacingRight=4;overflow=hidden;rotatable=0;points=[[0,0.5],[1,0.5]];portConstraint=eastwest;whiteSpace=wrap;html=1;" vertex="1" parent="Nu6f8mAnhE5_klJs1Bli-1">
          <mxGeometry y="216" width="160" height="26" as="geometry" />
        </mxCell>
        <mxCell id="Nu6f8mAnhE5_klJs1Bli-27" value="+ ActivateUser(): void" style="text;strokeColor=none;fillColor=none;align=left;verticalAlign=top;spacingLeft=4;spacingRight=4;overflow=hidden;rotatable=0;points=[[0,0.5],[1,0.5]];portConstraint=eastwest;whiteSpace=wrap;html=1;" vertex="1" parent="Nu6f8mAnhE5_klJs1Bli-1">
          <mxGeometry y="242" width="160" height="26" as="geometry" />
        </mxCell>
        <mxCell id="Nu6f8mAnhE5_klJs1Bli-15" value="Product" style="swimlane;fontStyle=1;align=center;verticalAlign=top;childLayout=stackLayout;horizontal=1;startSize=26;horizontalStack=0;resizeParent=1;resizeParentMax=0;resizeLast=0;collapsible=1;marginBottom=0;whiteSpace=wrap;html=1;" vertex="1" parent="1">
          <mxGeometry x="530" y="140" width="160" height="138" as="geometry" />
        </mxCell>
        <mxCell id="Nu6f8mAnhE5_klJs1Bli-16" value="- Id: long" style="text;strokeColor=none;fillColor=none;align=left;verticalAlign=top;spacingLeft=4;spacingRight=4;overflow=hidden;rotatable=0;points=[[0,0.5],[1,0.5]];portConstraint=eastwest;whiteSpace=wrap;html=1;" vertex="1" parent="Nu6f8mAnhE5_klJs1Bli-15">
          <mxGeometry y="26" width="160" height="26" as="geometry" />
        </mxCell>
        <mxCell id="Nu6f8mAnhE5_klJs1Bli-31" value="- Name: string" style="text;strokeColor=none;fillColor=none;align=left;verticalAlign=top;spacingLeft=4;spacingRight=4;overflow=hidden;rotatable=0;points=[[0,0.5],[1,0.5]];portConstraint=eastwest;whiteSpace=wrap;html=1;" vertex="1" parent="Nu6f8mAnhE5_klJs1Bli-15">
          <mxGeometry y="52" width="160" height="26" as="geometry" />
        </mxCell>
        <mxCell id="Nu6f8mAnhE5_klJs1Bli-32" value="- Quantity: int" style="text;strokeColor=none;fillColor=none;align=left;verticalAlign=top;spacingLeft=4;spacingRight=4;overflow=hidden;rotatable=0;points=[[0,0.5],[1,0.5]];portConstraint=eastwest;whiteSpace=wrap;html=1;" vertex="1" parent="Nu6f8mAnhE5_klJs1Bli-15">
          <mxGeometry y="78" width="160" height="26" as="geometry" />
        </mxCell>
        <mxCell id="Nu6f8mAnhE5_klJs1Bli-17" value="" style="line;strokeWidth=1;fillColor=none;align=left;verticalAlign=middle;spacingTop=-1;spacingLeft=3;spacingRight=3;rotatable=0;labelPosition=right;points=[];portConstraint=eastwest;strokeColor=inherit;" vertex="1" parent="Nu6f8mAnhE5_klJs1Bli-15">
          <mxGeometry y="104" width="160" height="8" as="geometry" />
        </mxCell>
        <mxCell id="Nu6f8mAnhE5_klJs1Bli-18" value="+ method(type): type" style="text;strokeColor=none;fillColor=none;align=left;verticalAlign=top;spacingLeft=4;spacingRight=4;overflow=hidden;rotatable=0;points=[[0,0.5],[1,0.5]];portConstraint=eastwest;whiteSpace=wrap;html=1;" vertex="1" parent="Nu6f8mAnhE5_klJs1Bli-15">
          <mxGeometry y="112" width="160" height="26" as="geometry" />
        </mxCell>
        <mxCell id="Nu6f8mAnhE5_klJs1Bli-19" value="Order" style="swimlane;fontStyle=1;align=center;verticalAlign=top;childLayout=stackLayout;horizontal=1;startSize=26;horizontalStack=0;resizeParent=1;resizeParentMax=0;resizeLast=0;collapsible=1;marginBottom=0;whiteSpace=wrap;html=1;" vertex="1" parent="1">
          <mxGeometry x="1020" y="100" width="160" height="86" as="geometry" />
        </mxCell>
        <mxCell id="Nu6f8mAnhE5_klJs1Bli-20" value="&amp;nbsp;" style="text;strokeColor=none;fillColor=none;align=left;verticalAlign=top;spacingLeft=4;spacingRight=4;overflow=hidden;rotatable=0;points=[[0,0.5],[1,0.5]];portConstraint=eastwest;whiteSpace=wrap;html=1;" vertex="1" parent="Nu6f8mAnhE5_klJs1Bli-19">
          <mxGeometry y="26" width="160" height="26" as="geometry" />
        </mxCell>
        <mxCell id="Nu6f8mAnhE5_klJs1Bli-21" value="" style="line;strokeWidth=1;fillColor=none;align=left;verticalAlign=middle;spacingTop=-1;spacingLeft=3;spacingRight=3;rotatable=0;labelPosition=right;points=[];portConstraint=eastwest;strokeColor=inherit;" vertex="1" parent="Nu6f8mAnhE5_klJs1Bli-19">
          <mxGeometry y="52" width="160" height="8" as="geometry" />
        </mxCell>
        <mxCell id="Nu6f8mAnhE5_klJs1Bli-22" value="+ method(type): type" style="text;strokeColor=none;fillColor=none;align=left;verticalAlign=top;spacingLeft=4;spacingRight=4;overflow=hidden;rotatable=0;points=[[0,0.5],[1,0.5]];portConstraint=eastwest;whiteSpace=wrap;html=1;" vertex="1" parent="Nu6f8mAnhE5_klJs1Bli-19">
          <mxGeometry y="60" width="160" height="26" as="geometry" />
        </mxCell>
        <mxCell id="Nu6f8mAnhE5_klJs1Bli-23" value="Order Item" style="swimlane;fontStyle=1;align=center;verticalAlign=top;childLayout=stackLayout;horizontal=1;startSize=26;horizontalStack=0;resizeParent=1;resizeParentMax=0;resizeLast=0;collapsible=1;marginBottom=0;whiteSpace=wrap;html=1;" vertex="1" parent="1">
          <mxGeometry x="1270" y="380" width="160" height="86" as="geometry" />
        </mxCell>
        <mxCell id="Nu6f8mAnhE5_klJs1Bli-24" value="+ field: type" style="text;strokeColor=none;fillColor=none;align=left;verticalAlign=top;spacingLeft=4;spacingRight=4;overflow=hidden;rotatable=0;points=[[0,0.5],[1,0.5]];portConstraint=eastwest;whiteSpace=wrap;html=1;" vertex="1" parent="Nu6f8mAnhE5_klJs1Bli-23">
          <mxGeometry y="26" width="160" height="26" as="geometry" />
        </mxCell>
        <mxCell id="Nu6f8mAnhE5_klJs1Bli-25" value="" style="line;strokeWidth=1;fillColor=none;align=left;verticalAlign=middle;spacingTop=-1;spacingLeft=3;spacingRight=3;rotatable=0;labelPosition=right;points=[];portConstraint=eastwest;strokeColor=inherit;" vertex="1" parent="Nu6f8mAnhE5_klJs1Bli-23">
          <mxGeometry y="52" width="160" height="8" as="geometry" />
        </mxCell>
        <mxCell id="Nu6f8mAnhE5_klJs1Bli-26" value="+ method(type): type" style="text;strokeColor=none;fillColor=none;align=left;verticalAlign=top;spacingLeft=4;spacingRight=4;overflow=hidden;rotatable=0;points=[[0,0.5],[1,0.5]];portConstraint=eastwest;whiteSpace=wrap;html=1;" vertex="1" parent="Nu6f8mAnhE5_klJs1Bli-23">
          <mxGeometry y="60" width="160" height="26" as="geometry" />
        </mxCell>
      </root>
    </mxGraphModel>
  </diagram>
</mxfile>
